<?xml version="1.0" encoding="utf-8" standalone="no"?>
<!DOCTYPE svg PUBLIC "-//W3C//DTD SVG 1.1//EN"
  "http://www.w3.org/Graphics/SVG/1.1/DTD/svg11.dtd">
<svg xmlns:xlink="http://www.w3.org/1999/xlink" width="301.329225pt" height="101.819025pt" viewBox="0 0 301.329225 101.819025" xmlns="http://www.w3.org/2000/svg" version="1.1">
 <metadata>
  <rdf:RDF xmlns:dc="http://purl.org/dc/elements/1.1/" xmlns:cc="http://creativecommons.org/ns#" xmlns:rdf="http://www.w3.org/1999/02/22-rdf-syntax-ns#">
   <cc:Work>
    <dc:type rdf:resource="http://purl.org/dc/dcmitype/StillImage"/>
    <dc:date>2026-05-01T20:16:14.047373</dc:date>
    <dc:format>image/svg+xml</dc:format>
    <dc:creator>
     <cc:Agent>
      <dc:title>Matplotlib v3.10.8, https://matplotlib.org/</dc:title>
     </cc:Agent>
    </dc:creator>
   </cc:Work>
  </rdf:RDF>
 </metadata>
 <defs>
  <style type="text/css">*{stroke-linejoin: round; stroke-linecap: butt}</style>
 </defs>
 <g id="figure_1">
  <g id="patch_1">
   <path d="M 0 101.819025 
L 301.329225 101.819025 
L 301.329225 0 
L 0 0 
L 0 101.819025 
z
" style="fill: none"/>
  </g>
  <g id="axes_1">
   <g id="patch_2">
    <path d="M 14.974875 9.0216 
L 14.974875 31.1094 
L 24.979275 31.1094 
Q 30.535875 31.1094 33.559875 28.2366 
Q 36.596475 25.3638 36.596475 20.0466 
Q 36.596475 14.7672 33.559875 11.8944 
Q 30.535875 9.0216 24.979275 9.0216 
L 14.974875 9.0216 
z
M 7.024275 2.4822 
L 24.979275 2.4822 
Q 34.870275 2.4822 39.922875 6.9552 
Q 44.988075 11.4282 44.988075 20.0466 
Q 44.988075 28.7532 39.922875 33.201 
Q 34.870275 37.6488 24.979275 37.6488 
L 14.974875 37.6488 
L 14.974875 61.2738 
L 7.024275 61.2738 
L 7.024275 2.4822 
z
" clip-path="url(#pacc2f05bba)" style="fill: #ffffff"/>
   </g>
   <g id="patch_3">
    <path d="M 54.745875 0 
L 61.990875 0 
L 61.990875 61.2738 
L 54.745875 61.2738 
L 54.745875 0 
z
M 77.15025 0 
L 84.39525 0 
L 84.39525 61.2738 
L 77.15025 61.2738 
L 77.15025 0 
z
" clip-path="url(#pacc2f05bba)" style="fill: #b8895a"/>
   </g>
   <g id="patch_4">
    <path d="M 115.63965 39.1104 
Q 106.85745 39.1104 103.46805 41.1138 
Q 100.07865 43.1172 100.07865 47.9682 
Q 100.07865 51.8238 102.62385 54.0918 
Q 105.16905 56.3472 109.52865 56.3472 
Q 115.56405 56.3472 119.20545 52.0758 
Q 122.84685 47.8044 122.84685 40.7232 
L 122.84685 39.1104 
L 115.63965 39.1104 
z
M 130.09185 36.1116 
L 130.09185 61.2738 
L 122.84685 61.2738 
L 122.84685 54.5832 
Q 120.36465 58.59 116.66025 60.5052 
Q 112.95585 62.4204 107.60085 62.4204 
Q 100.83465 62.4204 96.82785 58.6152 
Q 92.83365 54.81 92.83365 48.4344 
Q 92.83365 41.0004 97.81065 37.2204 
Q 102.80025 33.4404 112.67865 33.4404 
L 122.84685 33.4404 
L 122.84685 32.7222 
Q 122.84685 27.72 119.55825 24.9858 
Q 116.26965 22.2516 110.32245 22.2516 
Q 106.54245 22.2516 102.95145 23.1588 
Q 99.37305 24.066 96.07185 25.8804 
L 96.07185 19.1772 
Q 100.04085 17.64 103.78305 16.884 
Q 107.52525 16.1154 111.06585 16.1154 
Q 120.64185 16.1154 125.36685 21.0798 
Q 130.09185 26.0316 130.09185 36.1116 
z
M 152.178075 4.6494 
L 152.178075 17.1738 
L 167.096475 17.1738 
L 167.096475 22.806 
L 152.178075 22.806 
L 152.178075 46.746 
Q 152.178075 52.1388 153.652275 53.676 
Q 155.126475 55.2132 159.662475 55.2132 
L 167.096475 55.2132 
L 167.096475 61.2738 
L 159.662475 61.2738 
Q 151.270875 61.2738 148.083075 58.149 
Q 144.895275 55.0116 144.895275 46.746 
L 144.895275 22.806 
L 139.578075 22.806 
L 139.578075 17.1738 
L 144.895275 17.1738 
L 144.895275 4.6494 
L 152.178075 4.6494 
z
M 193.7124 22.2516 
Q 187.8912 22.2516 184.5018 26.8002 
Q 181.1124 31.3488 181.1124 39.2616 
Q 181.1124 47.1744 184.4766 51.723 
Q 187.8534 56.2716 193.7124 56.2716 
Q 199.5084 56.2716 202.8852 51.7104 
Q 206.2746 47.1366 206.2746 39.2616 
Q 206.2746 31.4244 202.8852 26.838 
Q 199.5084 22.2516 193.7124 22.2516 
z
M 193.7124 16.1154 
Q 203.1624 16.1154 208.5552 22.2642 
Q 213.9606 28.4004 213.9606 39.2616 
Q 213.9606 50.085 208.5552 56.259 
Q 203.1624 62.4204 193.7124 62.4204 
Q 184.2246 62.4204 178.8444 56.259 
Q 173.4768 50.085 173.4768 39.2616 
Q 173.4768 28.4004 178.8444 22.2642 
Q 184.2246 16.1154 193.7124 16.1154 
z
" clip-path="url(#pacc2f05bba)" style="fill: #ffffff"/>
   </g>
   <g id="patch_5">
    <path d="M 9.313425 90.93645 
L 9.313425 92.582325 
Q 8.5239 91.84725 7.630425 91.4859 
Q 6.73695 91.122075 5.7321 91.122075 
Q 3.7521 91.122075 2.700225 92.33235 
Q 1.64835 93.542625 1.64835 95.832 
Q 1.64835 98.11395 2.700225 99.324225 
Q 3.7521 100.5345 5.7321 100.5345 
Q 6.73695 100.5345 7.630425 100.170675 
Q 8.5239 99.80685 9.313425 99.071775 
L 9.313425 100.705275 
Q 8.4942 101.26215 7.575975 101.541825 
Q 6.660225 101.819025 5.640525 101.819025 
Q 3.017025 101.819025 1.507275 100.215225 
Q 0 98.60895 0 95.832 
Q 0 93.047625 1.507275 91.443825 
Q 3.017025 89.83755 5.640525 89.83755 
Q 6.675075 89.83755 7.590825 90.112275 
Q 8.50905 90.387 9.313425 90.93645 
z
M 16.449525 90.04545 
L 18.02115 90.04545 
L 18.02115 97.062075 
Q 18.02115 98.918325 18.691875 99.735075 
Q 19.365075 100.54935 20.874825 100.54935 
Q 22.374675 100.54935 23.047875 99.735075 
Q 23.721075 98.918325 23.721075 97.062075 
L 23.721075 90.04545 
L 25.290225 90.04545 
L 25.290225 97.255125 
Q 25.290225 99.512325 24.171525 100.665675 
Q 23.0553 101.819025 20.874825 101.819025 
Q 18.68445 101.819025 17.56575 100.665675 
Q 16.449525 99.512325 16.449525 97.255125 
L 16.449525 90.04545 
z
M 39.5271 90.424125 
L 39.5271 91.948725 
Q 38.638575 91.523025 37.84905 91.315125 
Q 37.059525 91.10475 36.32445 91.10475 
Q 35.049825 91.10475 34.356825 91.59975 
Q 33.663825 92.09475 33.663825 93.008025 
Q 33.663825 93.775275 34.124175 94.166325 
Q 34.584525 94.5549 35.86905 94.794975 
L 36.812025 94.988025 
Q 38.559375 95.32215 39.390975 96.161175 
Q 40.222575 97.0002 40.222575 98.406 
Q 40.222575 100.086525 39.09645 100.952775 
Q 37.9728 101.819025 35.79975 101.819025 
Q 34.980525 101.819025 34.054875 101.6334 
Q 33.1317 101.447775 32.1417 101.08395 
L 32.1417 99.4752 
Q 33.0921 100.007325 34.005375 100.279575 
Q 34.91865 100.54935 35.79975 100.54935 
Q 37.13625 100.54935 37.8639 100.02465 
Q 38.59155 99.497475 38.59155 98.522325 
Q 38.59155 97.6734 38.069325 97.19325 
Q 37.5471 96.7131 36.356625 96.473025 
L 35.40375 96.2874 
Q 33.6564 95.9409 32.8743 95.1984 
Q 32.094675 94.4559 32.094675 93.131775 
Q 32.094675 91.59975 33.173775 90.71865 
Q 34.252875 89.83755 36.14625 89.83755 
Q 36.960525 89.83755 37.802025 89.98605 
Q 38.646 90.132075 39.5271 90.424125 
z
M 45.93555 90.04545 
L 55.704375 90.04545 
L 55.704375 91.36215 
L 51.605775 91.36215 
L 51.605775 101.5938 
L 50.036625 101.5938 
L 50.036625 91.36215 
L 45.93555 91.36215 
L 45.93555 90.04545 
z
M 67.706325 91.10475 
Q 66.003525 91.10475 65.00115 92.374425 
Q 64.00125 93.641625 64.00125 95.832 
Q 64.00125 98.012475 65.00115 99.28215 
Q 66.003525 100.54935 67.706325 100.54935 
Q 69.40665 100.54935 70.4016 99.28215 
Q 71.39655 98.012475 71.39655 95.832 
Q 71.39655 93.641625 70.4016 92.374425 
Q 69.40665 91.10475 67.706325 91.10475 
z
M 67.706325 89.83755 
Q 70.1343 89.83755 71.587125 91.4661 
Q 73.042425 93.09465 73.042425 95.832 
Q 73.042425 98.561925 71.587125 100.190475 
Q 70.1343 101.819025 67.706325 101.819025 
Q 65.270925 101.819025 63.810675 100.195425 
Q 62.3529 98.56935 62.3529 95.832 
Q 62.3529 93.09465 63.810675 91.4661 
Q 65.270925 89.83755 67.706325 89.83755 
z
M 80.356725 90.04545 
L 82.6857 90.04545 
L 85.63095 97.903575 
L 88.593525 90.04545 
L 90.9225 90.04545 
L 90.9225 101.5938 
L 89.3979 101.5938 
L 89.3979 91.453725 
L 86.420475 99.373725 
L 84.851325 99.373725 
L 81.8739 91.453725 
L 81.8739 101.5938 
L 80.356725 101.5938 
L 80.356725 90.04545 
z
M 119.29725 90.93645 
L 119.29725 92.582325 
Q 118.507725 91.84725 117.61425 91.4859 
Q 116.720775 91.122075 115.715925 91.122075 
Q 113.735925 91.122075 112.68405 92.33235 
Q 111.632175 93.542625 111.632175 95.832 
Q 111.632175 98.11395 112.68405 99.324225 
Q 113.735925 100.5345 115.715925 100.5345 
Q 116.720775 100.5345 117.61425 100.170675 
Q 118.507725 99.80685 119.29725 99.071775 
L 119.29725 100.705275 
Q 118.478025 101.26215 117.5598 101.541825 
Q 116.64405 101.819025 115.62435 101.819025 
Q 113.00085 101.819025 111.4911 100.215225 
Q 109.983825 98.60895 109.983825 95.832 
Q 109.983825 93.047625 111.4911 91.443825 
Q 113.00085 89.83755 115.62435 89.83755 
Q 116.6589 89.83755 117.57465 90.112275 
Q 118.492875 90.387 119.29725 90.93645 
z
M 132.088725 96.1785 
Q 132.59115 96.349275 133.06635 96.90615 
Q 133.54155 97.463025 134.0217 98.438175 
L 135.608175 101.5938 
L 133.92765 101.5938 
L 132.45255 98.631225 
Q 131.87835 97.47045 131.341275 97.091775 
Q 130.8042 96.7131 129.876075 96.7131 
L 128.173275 96.7131 
L 128.173275 101.5938 
L 126.61155 101.5938 
L 126.61155 90.04545 
L 130.138425 90.04545 
Q 132.118425 90.04545 133.093575 90.874575 
Q 134.068725 91.701225 134.068725 93.37185 
Q 134.068725 94.463325 133.56135 95.18355 
Q 133.053975 95.9013 132.088725 96.1785 
z
M 128.173275 91.329975 
L 128.173275 95.428575 
L 130.138425 95.428575 
Q 131.267025 95.428575 131.8437 94.90635 
Q 132.420375 94.384125 132.420375 93.37185 
Q 132.420375 92.359575 131.8437 91.844775 
Q 131.267025 91.329975 130.138425 91.329975 
L 128.173275 91.329975 
z
M 142.922475 90.04545 
L 145.25145 90.04545 
L 148.1967 97.903575 
L 151.159275 90.04545 
L 153.48825 90.04545 
L 153.48825 101.5938 
L 151.96365 101.5938 
L 151.96365 91.453725 
L 148.986225 99.373725 
L 147.417075 99.373725 
L 144.43965 91.453725 
L 144.43965 101.5938 
L 142.922475 101.5938 
L 142.922475 90.04545 
z
M 180.137925 90.424125 
L 180.137925 91.948725 
Q 179.2494 91.523025 178.459875 91.315125 
Q 177.67035 91.10475 176.935275 91.10475 
Q 175.66065 91.10475 174.96765 91.59975 
Q 174.27465 92.09475 174.27465 93.008025 
Q 174.27465 93.775275 174.735 94.166325 
Q 175.19535 94.5549 176.479875 94.794975 
L 177.42285 94.988025 
Q 179.1702 95.32215 180.0018 96.161175 
Q 180.8334 97.0002 180.8334 98.406 
Q 180.8334 100.086525 179.707275 100.952775 
Q 178.583625 101.819025 176.410575 101.819025 
Q 175.59135 101.819025 174.6657 101.6334 
Q 173.742525 101.447775 172.752525 101.08395 
L 172.752525 99.4752 
Q 173.702925 100.007325 174.6162 100.279575 
Q 175.529475 100.54935 176.410575 100.54935 
Q 177.747075 100.54935 178.474725 100.02465 
Q 179.202375 99.497475 179.202375 98.522325 
Q 179.202375 97.6734 178.68015 97.19325 
Q 178.157925 96.7131 176.96745 96.473025 
L 176.014575 96.2874 
Q 174.267225 95.9409 173.485125 95.1984 
Q 172.7055 94.4559 172.7055 93.131775 
Q 172.7055 91.59975 173.7846 90.71865 
Q 174.8637 89.83755 176.757075 89.83755 
Q 177.57135 89.83755 178.41285 89.98605 
Q 179.256825 90.132075 180.137925 90.424125 
z
M 192.83535 91.10475 
Q 191.13255 91.10475 190.130175 92.374425 
Q 189.130275 93.641625 189.130275 95.832 
Q 189.130275 98.012475 190.130175 99.28215 
Q 191.13255 100.54935 192.83535 100.54935 
Q 194.535675 100.54935 195.530625 99.28215 
Q 196.525575 98.012475 196.525575 95.832 
Q 196.525575 93.641625 195.530625 92.374425 
Q 194.535675 91.10475 192.83535 91.10475 
z
M 192.83535 89.83755 
Q 195.263325 89.83755 196.71615 91.4661 
Q 198.17145 93.09465 198.17145 95.832 
Q 198.17145 98.561925 196.71615 100.190475 
Q 195.263325 101.819025 192.83535 101.819025 
Q 190.39995 101.819025 188.9397 100.195425 
Q 187.481925 98.56935 187.481925 95.832 
Q 187.481925 93.09465 188.9397 91.4661 
Q 190.39995 89.83755 192.83535 89.83755 
z
M 205.48575 90.04545 
L 207.047475 90.04545 
L 207.047475 100.279575 
L 212.670675 100.279575 
L 212.670675 101.5938 
L 205.48575 101.5938 
L 205.48575 90.04545 
z
M 219.806775 90.04545 
L 221.3784 90.04545 
L 221.3784 97.062075 
Q 221.3784 98.918325 222.049125 99.735075 
Q 222.722325 100.54935 224.232075 100.54935 
Q 225.731925 100.54935 226.405125 99.735075 
Q 227.078325 98.918325 227.078325 97.062075 
L 227.078325 90.04545 
L 228.647475 90.04545 
L 228.647475 97.255125 
Q 228.647475 99.512325 227.528775 100.665675 
Q 226.41255 101.819025 224.232075 101.819025 
Q 222.0417 101.819025 220.923 100.665675 
Q 219.806775 99.512325 219.806775 97.255125 
L 219.806775 90.04545 
z
M 234.36045 90.04545 
L 244.129275 90.04545 
L 244.129275 91.36215 
L 240.030675 91.36215 
L 240.030675 101.5938 
L 238.461525 101.5938 
L 238.461525 91.36215 
L 234.36045 91.36215 
L 234.36045 90.04545 
z
M 251.443575 90.04545 
L 253.0053 90.04545 
L 253.0053 101.5938 
L 251.443575 101.5938 
L 251.443575 90.04545 
z
M 265.00725 91.10475 
Q 263.30445 91.10475 262.302075 92.374425 
Q 261.302175 93.641625 261.302175 95.832 
Q 261.302175 98.012475 262.302075 99.28215 
Q 263.30445 100.54935 265.00725 100.54935 
Q 266.707575 100.54935 267.702525 99.28215 
Q 268.697475 98.012475 268.697475 95.832 
Q 268.697475 93.641625 267.702525 92.374425 
Q 266.707575 91.10475 265.00725 91.10475 
z
M 265.00725 89.83755 
Q 267.435225 89.83755 268.88805 91.4661 
Q 270.34335 93.09465 270.34335 95.832 
Q 270.34335 98.561925 268.88805 100.190475 
Q 267.435225 101.819025 265.00725 101.819025 
Q 262.57185 101.819025 261.1116 100.195425 
Q 259.653825 98.56935 259.653825 95.832 
Q 259.653825 93.09465 261.1116 91.4661 
Q 262.57185 89.83755 265.00725 89.83755 
z
M 277.65765 90.04545 
L 279.7614 90.04545 
L 284.882175 99.705375 
L 284.882175 90.04545 
L 286.396875 90.04545 
L 286.396875 101.5938 
L 284.293125 101.5938 
L 279.174825 91.933875 
L 279.174825 101.5938 
L 277.65765 101.5938 
L 277.65765 90.04545 
z
M 300.63375 90.424125 
L 300.63375 91.948725 
Q 299.745225 91.523025 298.9557 91.315125 
Q 298.166175 91.10475 297.4311 91.10475 
Q 296.156475 91.10475 295.463475 91.59975 
Q 294.770475 92.09475 294.770475 93.008025 
Q 294.770475 93.775275 295.230825 94.166325 
Q 295.691175 94.5549 296.9757 94.794975 
L 297.918675 94.988025 
Q 299.666025 95.32215 300.497625 96.161175 
Q 301.329225 97.0002 301.329225 98.406 
Q 301.329225 100.086525 300.2031 100.952775 
Q 299.07945 101.819025 296.9064 101.819025 
Q 296.087175 101.819025 295.161525 101.6334 
Q 294.23835 101.447775 293.24835 101.08395 
L 293.24835 99.4752 
Q 294.19875 100.007325 295.112025 100.279575 
Q 296.0253 100.54935 296.9064 100.54935 
Q 298.2429 100.54935 298.97055 100.02465 
Q 299.6982 99.497475 299.6982 98.522325 
Q 299.6982 97.6734 299.175975 97.19325 
Q 298.65375 96.7131 297.463275 96.473025 
L 296.5104 96.2874 
Q 294.76305 95.9409 293.98095 95.1984 
Q 293.201325 94.4559 293.201325 93.131775 
Q 293.201325 91.59975 294.280425 90.71865 
Q 295.359525 89.83755 297.2529 89.83755 
Q 298.067175 89.83755 298.908675 89.98605 
Q 299.75265 90.132075 300.63375 90.424125 
z
" clip-path="url(#pacc2f05bba)" style="fill: #ffffff"/>
   </g>
  </g>
 </g>
 <defs>
  <clipPath id="pacc2f05bba">
   <rect x="0" y="0" width="301.329225" height="101.819025"/>
  </clipPath>
 </defs>
</svg>
