<?xml version="1.0" encoding="utf-8" standalone="no"?>
<!DOCTYPE svg PUBLIC "-//W3C//DTD SVG 1.1//EN"
  "http://www.w3.org/Graphics/SVG/1.1/DTD/svg11.dtd">
<svg xmlns:xlink="http://www.w3.org/1999/xlink" width="46.08pt" height="46.08pt" viewBox="0 0 46.08 46.08" xmlns="http://www.w3.org/2000/svg" version="1.1">
 <metadata>
  <rdf:RDF xmlns:dc="http://purl.org/dc/elements/1.1/" xmlns:cc="http://creativecommons.org/ns#" xmlns:rdf="http://www.w3.org/1999/02/22-rdf-syntax-ns#">
   <cc:Work>
    <dc:type rdf:resource="http://purl.org/dc/dcmitype/StillImage"/>
    <dc:date>2026-05-01T20:16:14.082670</dc:date>
    <dc:format>image/svg+xml</dc:format>
    <dc:creator>
     <cc:Agent>
      <dc:title>Matplotlib v3.10.8, https://matplotlib.org/</dc:title>
     </cc:Agent>
    </dc:creator>
   </cc:Work>
  </rdf:RDF>
 </metadata>
 <defs>
  <style type="text/css">*{stroke-linejoin: round; stroke-linecap: butt}</style>
 </defs>
 <g id="figure_1">
  <g id="patch_1">
   <path d="M 0 46.08 
L 46.08 46.08 
L 46.08 0 
L 0 0 
L 0 46.08 
z
" style="fill: none"/>
  </g>
  <g id="axes_1">
   <g id="patch_2">
    <path d="M 8.7552 46.08 
L 37.3248 46.08 
Q 46.08 46.08 46.08 37.3248 
L 46.08 8.7552 
Q 46.08 -0 37.3248 -0 
L 8.7552 -0 
Q 0 -0 0 8.7552 
L 0 37.3248 
Q 0 46.08 8.7552 46.08 
z
" clip-path="url(#paa657af6a8)" style="fill: #0a1628"/>
   </g>
   <g id="patch_3">
    <path d="M 19.482075 14.765544 
L 21.220875 14.765544 
L 21.220875 29.471256 
L 19.482075 29.471256 
L 19.482075 14.765544 
z
M 24.859125 14.765544 
L 26.597925 14.765544 
L 26.597925 29.471256 
L 24.859125 29.471256 
L 24.859125 14.765544 
z
" clip-path="url(#paa657af6a8)" style="fill: #b8895a"/>
   </g>
  </g>
 </g>
 <defs>
  <clipPath id="paa657af6a8">
   <rect x="0" y="-0" width="46.08" height="46.08"/>
  </clipPath>
 </defs>
</svg>
