<svg xmlns="http://www.w3.org/2000/svg" viewBox="0 0 100 100" width="100" height="100">
  <!-- зуб -->
  <path d="M50 9 C32 9 19 13 16.5 27.5 C14.5 38 16.5 50.5 20.5 64 C23 73 24.5 85 31 85 C37 85 37.5 71 41 63 C43 58.5 45.5 60 50 60 C54.5 60 57 58.5 59 63 C62.5 71 63 85 69 85 C75.5 85 77 73 79.5 64 C83.5 50.5 85.5 38 83.5 27.5 C81 13 68 9 50 9 Z" fill="#1AA7E8"/>
  <!-- блик -->
  <path d="M44 20 C53 17 62 20 67 29 C60 23 52 22 46 24.5 C45 23 44.4 21.5 44 20 Z" fill="#ffffff" opacity="0.92"/>
  <!-- крест -->
  <g fill="#7DC832">
    <rect x="1" y="26" width="30" height="13" rx="4"/>
    <rect x="9.5" y="17.5" width="13" height="30" rx="4"/>
  </g>
</svg>
