<?xml version="1.0" encoding="utf-8" standalone="no"?>
<!DOCTYPE svg PUBLIC "-//W3C//DTD SVG 1.1//EN"
  "http://www.w3.org/Graphics/SVG/1.1/DTD/svg11.dtd">
<svg xmlns:xlink="http://www.w3.org/1999/xlink" width="368.64pt" height="368.64pt" viewBox="0 0 368.64 368.64" xmlns="http://www.w3.org/2000/svg" version="1.1">
 <metadata>
  <rdf:RDF xmlns:dc="http://purl.org/dc/elements/1.1/" xmlns:cc="http://creativecommons.org/ns#" xmlns:rdf="http://www.w3.org/1999/02/22-rdf-syntax-ns#">
   <cc:Work>
    <dc:type rdf:resource="http://purl.org/dc/dcmitype/StillImage"/>
    <dc:date>2026-05-01T20:16:14.067351</dc:date>
    <dc:format>image/svg+xml</dc:format>
    <dc:creator>
     <cc:Agent>
      <dc:title>Matplotlib v3.10.8, https://matplotlib.org/</dc:title>
     </cc:Agent>
    </dc:creator>
   </cc:Work>
  </rdf:RDF>
 </metadata>
 <defs>
  <style type="text/css">*{stroke-linejoin: round; stroke-linecap: butt}</style>
 </defs>
 <g id="figure_1">
  <g id="patch_1">
   <path d="M 0 368.64 
L 368.64 368.64 
L 368.64 0 
L 0 0 
L 0 368.64 
z
" style="fill: none"/>
  </g>
  <g id="axes_1">
   <g id="patch_2">
    <path d="M 70.0416 368.64 
L 298.5984 368.64 
Q 368.64 368.64 368.64 298.5984 
L 368.64 70.0416 
Q 368.64 -0 298.5984 -0 
L 70.0416 -0 
Q 0 -0 0 70.0416 
L 0 298.5984 
Q 0 368.64 70.0416 368.64 
z
" clip-path="url(#p0948596a92)" style="fill: #0a1628"/>
   </g>
   <g id="patch_3">
    <path d="M 155.8566 118.124352 
L 169.767 118.124352 
L 169.767 235.770048 
L 155.8566 235.770048 
L 155.8566 118.124352 
z
M 198.873 118.124352 
L 212.7834 118.124352 
L 212.7834 235.770048 
L 198.873 235.770048 
L 198.873 118.124352 
z
" clip-path="url(#p0948596a92)" style="fill: #b8895a"/>
   </g>
  </g>
 </g>
 <defs>
  <clipPath id="p0948596a92">
   <rect x="0" y="-0" width="368.64" height="368.64"/>
  </clipPath>
 </defs>
</svg>
